<svg xmlns="http://www.w3.org/2000/svg" width="375" viewBox="0 0 375 375" height="375" version="1.0"><path fill="#FFDE59" d="M 349.496094 99.648438 C 337.515625 104.972656 324.625 108.566406 311.097656 110.171875 C 324.90625 101.902344 335.496094 88.808594 340.492188 73.183594 C 327.574219 80.851562 313.273438 86.414062 298.039062 89.414062 C 285.847656 76.425781 268.472656 68.300781 249.242188 68.300781 C 212.328125 68.300781 182.398438 98.234375 182.398438 135.15625 C 182.398438 140.386719 182.984375 145.488281 184.128906 150.390625 C 128.566406 147.597656 79.300781 120.988281 46.328125 80.539062 C 40.574219 90.40625 37.28125 101.890625 37.28125 114.152344 C 37.28125 137.34375 49.082031 157.808594 67.019531 169.796875 C 56.066406 169.445312 45.753906 166.4375 36.738281 161.429688 C 36.730469 161.707031 36.730469 161.992188 36.730469 162.273438 C 36.730469 194.660156 59.777344 221.675781 90.363281 227.824219 C 84.753906 229.347656 78.847656 230.167969 72.746094 230.167969 C 68.433594 230.167969 64.246094 229.75 60.167969 228.964844 C 68.679688 255.519531 93.363281 274.855469 122.613281 275.390625 C 99.734375 293.324219 70.914062 304.011719 39.589844 304.011719 C 34.199219 304.011719 28.871094 303.695312 23.640625 303.074219 C 53.234375 322.050781 88.371094 333.109375 126.121094 333.109375 C 249.089844 333.109375 316.328125 231.246094 316.328125 142.902344 C 316.328125 140.003906 316.269531 137.113281 316.144531 134.242188 C 329.199219 124.835938 340.539062 113.054688 349.496094 99.648438 Z M 349.496094 99.648438"/></svg>